<svg xmlns="http://www.w3.org/2000/svg" width="147.552" height="75.749" viewBox="0 0 147.552 75.749"><defs><style>.a{fill:#fff;}</style></defs><path class="a" d="M84.294,26.626a.658.658,0,0,1-.487-.2l-1.973-2.006a1.677,1.677,0,0,1,0-2.375l4.815-4.815a1.69,1.69,0,0,1,2.375,0L91,19.239a.684.684,0,1,1-.974.96L88.01,18.226a.276.276,0,0,0-.21-.086.283.283,0,0,0-.21.086l-4.808,4.815a.289.289,0,0,0-.092.21.3.3,0,0,0,.092.21l1.973,2.006a.691.691,0,0,1-.493,1.177Z" transform="translate(-27.837 -5.729)"/><path class="a" d="M113.948,15.37a.7.7,0,0,1-.7-.658V11.844a.3.3,0,0,0-.3-.3h-6.828a.3.3,0,0,0-.3.3v2.815a.691.691,0,1,1-1.381,0V11.844a1.684,1.684,0,0,1,1.677-1.684h6.808a1.684,1.684,0,0,1,1.684,1.684v2.815a.658.658,0,0,1-.671.71Z" transform="translate(-35.745 -3.477)"/><path class="a" d="M134.981,26.619a.681.681,0,0,1-.487-1.177l1.973-2.006a.3.3,0,0,0,0-.421l-4.782-4.8a.276.276,0,0,0-.21-.086.283.283,0,0,0-.211.086l-2.006,1.973a.7.7,0,0,1-.98,0,.658.658,0,0,1,0-.974l2.013-2.013a1.664,1.664,0,0,1,1.184-.487,1.69,1.69,0,0,1,1.191.487l4.808,4.815a1.677,1.677,0,0,1,0,2.375L135.467,26.4A.658.658,0,0,1,134.981,26.619Z" transform="translate(-43.826 -5.722)"/><path class="a" d="M145.306,50.089h-2.835a.691.691,0,1,1,0-1.381h2.835a.3.3,0,0,0,.3-.3V41.6a.3.3,0,0,0-.3-.3h-2.835a.691.691,0,1,1,0-1.381h2.835A1.684,1.684,0,0,1,146.99,41.6v6.808A1.684,1.684,0,0,1,145.306,50.089Z" transform="translate(-48.521 -13.662)"/><path class="a" d="M131.481,73.421a1.671,1.671,0,0,1-1.184-.493l-2.013-1.973a.693.693,0,0,1,.98-.98l2.006,1.973a.283.283,0,0,0,.21.086.276.276,0,0,0,.21-.086l4.815-4.821a.3.3,0,0,0,0-.421L134.533,64.7a.688.688,0,0,1,.973-.974l2.006,1.973a1.677,1.677,0,0,1,0,2.375L132.7,72.888A1.7,1.7,0,0,1,131.481,73.421Z" transform="translate(-43.833 -21.739)"/><path class="a" d="M112.955,82.43h-6.828a1.677,1.677,0,0,1-1.677-1.677V77.911a.691.691,0,0,1,1.381,0v2.842a.3.3,0,0,0,.3.27h6.808a.3.3,0,0,0,.3-.3V77.911a.7.7,0,0,1,1.388,0v2.842A1.684,1.684,0,0,1,112.955,82.43Z" transform="translate(-35.745 -26.427)"/><path class="a" d="M87.769,73.441a1.671,1.671,0,0,1-1.184-.493l-4.841-4.815a1.677,1.677,0,0,1,0-2.375l1.973-1.973a.7.7,0,0,1,.98,0,.658.658,0,0,1,0,.974l-1.973,2.006a.3.3,0,0,0-.092.21.289.289,0,0,0,.092.21L87.532,72a.283.283,0,0,0,.21.086.276.276,0,0,0,.21-.086l2.013-1.973a.658.658,0,0,1,.974,0,.7.7,0,0,1,0,.98l-1.973,1.973a1.671,1.671,0,0,1-1.2.46Z" transform="translate(-27.806 -21.76)"/><path class="a" d="M79.239,50.089H76.4a1.677,1.677,0,0,1-1.677-1.677V41.6A1.684,1.684,0,0,1,76.4,39.92h2.842a.691.691,0,1,1,0,1.381H76.4a.3.3,0,0,0-.3.3v6.808a.3.3,0,0,0,.3.3h2.842a.691.691,0,1,1,0,1.381Z" transform="translate(-25.571 -13.662)"/><path class="a" d="M86.021,54.5h0a.71.71,0,0,1-.513-.25,21.108,21.108,0,0,1,0-28.126.692.692,0,1,1,1.033.921,19.733,19.733,0,0,0-.48,25.732l2.888-2.888a15.655,15.655,0,0,1,.408-19.9.717.717,0,0,1,.5-.243.743.743,0,0,1,.513.2l3.868,3.907a.691.691,0,0,1,.053.914,8.821,8.821,0,0,0,0,10.906.691.691,0,0,1-1.085.855,10.2,10.2,0,0,1-.368-12.116l-2.921-2.927a14.28,14.28,0,0,0,.474,18.01.658.658,0,0,1,0,.941l-3.855,3.855a.7.7,0,0,1-.513.2Z" transform="translate(-27.426 -8.86)"/><path class="a" d="M130.947,54.507a.691.691,0,0,1-.513-1.151,19.733,19.733,0,0,0,.474-25.726l-2.881,2.881a15.655,15.655,0,0,1-.408,19.9.7.7,0,0,1-.5.243.658.658,0,0,1-.513-.2l-3.868-3.868a.658.658,0,0,1-.053-.914,8.84,8.84,0,0,0,0-10.906.658.658,0,0,1,.112-.967.7.7,0,0,1,.974.112,10.2,10.2,0,0,1,.382,12.123l2.907,2.9a14.261,14.261,0,0,0-.474-18.01.7.7,0,0,1,.039-.941l3.855-3.855a.717.717,0,0,1,.507-.2.7.7,0,0,1,.493.23,21.088,21.088,0,0,1,0,28.126A.658.658,0,0,1,130.947,54.507Z" transform="translate(-41.931 -8.87)"/><path class="a" d="M118.785,64a.7.7,0,0,0-.974-.059,19.667,19.667,0,0,1-12.346,4.914V64.792a15.648,15.648,0,0,0,9.386-3.664.691.691,0,1,0-.888-1.059,14.287,14.287,0,0,1-8.5,3.335V59.339a10.1,10.1,0,0,0,5.492-2.065.693.693,0,0,0-.835-1.105,8.735,8.735,0,0,1-4.657,1.763V53.873a4.776,4.776,0,0,0,1.6-.546.689.689,0,0,0-.658-1.21,3.434,3.434,0,0,1-3.289,0,.689.689,0,1,0-.658,1.21,4.808,4.808,0,0,0,1.612.539v4.065a8.755,8.755,0,0,1-4.762-1.862.691.691,0,1,0-.855,1.085,10.13,10.13,0,0,0,5.617,2.158v4.065a14.267,14.267,0,0,1-8.6-3.42.69.69,0,1,0-.9,1.046,15.688,15.688,0,0,0,9.5,3.762V68.85a19.648,19.648,0,0,1-12.445-5,.658.658,0,0,0-.974.053.7.7,0,0,0,.053.98,21.108,21.108,0,0,0,28.015.1A.7.7,0,0,0,118.785,64Z" transform="translate(-30.965 -17.807)"/><path class="a" d="M118.892,20.948a21.108,21.108,0,0,0-28.015-.1.692.692,0,0,0,.914,1.039,19.667,19.667,0,0,1,12.346-4.914v4.058A15.708,15.708,0,0,0,94.745,24.7a.693.693,0,0,0,.895,1.059,14.267,14.267,0,0,1,8.5-3.322V26.5a10.051,10.051,0,0,0-5.492,2.065.658.658,0,0,0-.132.967.691.691,0,0,0,.967.132,8.683,8.683,0,0,1,4.657-1.776v4.078a4.934,4.934,0,0,0-1.454.46.691.691,0,0,0,.618,1.237,3.289,3.289,0,0,1,1.526-.362,3.434,3.434,0,0,1,1.631.414.689.689,0,0,0,.658-1.21,4.762,4.762,0,0,0-1.6-.533v-4.1a8.716,8.716,0,0,1,4.762,1.855.689.689,0,1,0,.849-1.085,10.11,10.11,0,0,0-5.611-2.158V22.434a14.234,14.234,0,0,1,8.6,3.427.658.658,0,0,0,.447.164.7.7,0,0,0,.526-.243.658.658,0,0,0-.072-.974,15.688,15.688,0,0,0-9.5-3.762V16.975a19.628,19.628,0,0,1,12.445,5.006.7.7,0,1,0,.927-1.033Z" transform="translate(-31.02 -5.332)"/><circle class="a" cx="1.631" cy="1.631" r="1.631" transform="translate(72.178 29.712)"/><circle class="a" cx="2.447" cy="2.447" r="2.447" transform="translate(92.253 54.733)"/><circle class="a" cx="2.447" cy="2.447" r="2.447" transform="translate(100.797 34.592)"/><circle class="a" cx="2.447" cy="2.447" r="2.447" transform="translate(96.318 12.392)"/><circle class="a" cx="2.447" cy="2.447" r="2.447" transform="translate(80.801 0)"/><circle class="a" cx="2.447" cy="2.447" r="2.447" transform="translate(60.265 0.5)"/><circle class="a" cx="2.447" cy="2.447" r="2.447" transform="translate(45.38 13.919)"/><circle class="a" cx="2.447" cy="2.447" r="2.447" transform="translate(41.881 35.329)"/><circle class="a" cx="2.447" cy="2.447" r="2.447" transform="translate(52.175 54.733)"/><rect class="a" width="23.233" height="2.381" rx="1.191" transform="translate(62.173 61.535)"/><rect class="a" width="22.22" height="2.276" rx="1.138" transform="translate(62.679 64.6)"/><rect class="a" width="21.207" height="2.171" rx="1.085" transform="translate(63.186 67.659)"/><rect class="a" width="20.194" height="2.065" rx="1.033" transform="translate(63.692 70.724)"/><rect class="a" width="19.181" height="1.967" rx="0.983" transform="translate(64.199 73.783)"/><path class="a" d="M0,78.2l7.111-8.466a23.729,23.729,0,0,0,14.938,5.532c3.42,0,5.262-1.184,5.262-3.164v-.132c0-1.908-1.513-2.96-7.762-4.407C9.742,65.323,2.171,62.554,2.171,53.089v-.132c0-8.551,6.782-14.747,17.839-14.747,7.828,0,13.951,2.1,18.95,6.124l-6.38,9.018a23.073,23.073,0,0,0-12.9-4.545c-3.1,0-4.6,1.316-4.6,2.967v.112c0,2.111,1.579,3.032,7.966,4.479,10.6,2.3,17.181,5.723,17.181,14.346v.132c0,9.413-7.439,15.01-18.628,15.01C13.425,85.859,5.657,83.287,0,78.2Z" transform="translate(0 -13.076)"/><path class="a" d="M163.22,78.2l7.091-8.466a23.756,23.756,0,0,0,14.938,5.532c3.427,0,5.262-1.184,5.262-3.164v-.132c0-1.908-1.513-2.96-7.768-4.407-9.807-2.236-17.372-5.006-17.372-14.471v-.132c0-8.551,6.775-14.747,17.832-14.747,7.834,0,13.958,2.1,18.957,6.124l-6.38,9.018a23.093,23.093,0,0,0-12.906-4.545c-3.092,0-4.6,1.316-4.6,2.967v.112c0,2.111,1.579,3.032,7.966,4.479,10.6,2.3,17.174,5.723,17.174,14.346v.132c0,9.413-7.439,15.01-18.628,15.01C176.645,85.859,168.877,83.287,163.22,78.2Z" transform="translate(-55.858 -13.076)"/></svg>